---
title: ".mp4 to .flv using ffmpeg or memcoder"
date: 2009-11-27
forum: Multimedia Software
---

### Post by NobleSavage on 2009-11-27
I have a mp4 file I'd like to convert to a flv using either ffmpeg or memcoder (which ever would be best). I've read different instructions on different forums and nothing seems to work.

When id run ffmpeg  -i video_to_convert.mp4 I get the following info:



[PHP]FFmpeg version SVN-rUNKNOWN, Copyright (c) 2000-2007 Fabrice Bellard, et al.
  configuration: --enable-gpl --enable-pp --enable-swscaler --enable-pthreads --enable-libvorbis --enable-libtheora --enable-libogg --enable-libgsm --enable-dc1394 --disable-debug --enable-libmp3lame --enable-libfaadbin --enable-libfaad --enable-libfaac --enable-xvid --enable-x264 --enable-liba52 --enable-amr_nb --enable-amr_wb --enable-shared --prefix=/usr
  libavutil version: 1d.49.3.0
  libavcodec version: 1d.51.38.0
  libavformat version: 1d.51.10.0
  built on Mar 17 2009 21:37:49, gcc: 4.2.4 (Ubuntu 4.2.4-1ubuntu3)
Input #0, mov,mp4,m4a,3gp,3g2,mj2, from 'working.mp4':
  Duration: 00:03:32.3, start: 0.000000, bitrate: 4084 kb/s
  Stream #0.0(eng): Audio: aac, 48000 Hz, stereo
  Stream #0.1(eng): Video: h264, yuv420p, 426x240, 29.97 fps(r)
[/PHP]

---

### Post by pauwl on 2009-12-17
When I convert MP4 to FLV, I use the following:

ffmpeg -i original.mp4 -f flv new.flv

does that work for you?

---

